HIERARCHY
ROOT SpineBase
{
  OFFSET 0.000000 0.000000 0.000000
  CHANNELS 6 Xposition Yposition Zposition Zrotation Xrotation Yrotation
  JOINT SpineMid
  {
    OFFSET -0.000000 29.133665 0.000000
    CHANNELS 3 Zrotation Xrotation Yrotation
    JOINT SpineShoulder
    {
      OFFSET 0.114715 22.143114 -1.003974
      CHANNELS 3 Zrotation Xrotation Yrotation
      JOINT Neck
      {
        OFFSET 0.087512 7.400956 -0.646536
        CHANNELS 3 Zrotation Xrotation Yrotation
        JOINT Head
        {
          OFFSET -5.636742 7.565942 5.892942
          CHANNELS 3 Zrotation Xrotation Yrotation
          End Site
          {
            OFFSET 0 0 0
          }
        }
      }
      JOINT ShoulderLeft
      {
        OFFSET -9.415359 -9.573507 -12.784419
        CHANNELS 3 Zrotation Xrotation Yrotation
        JOINT ElbowLeft
        {
          OFFSET -5.440107 -26.508522 0.084450
          CHANNELS 3 Zrotation Xrotation Yrotation
          JOINT WristLeft
          {
            OFFSET -4.146715 -23.392687 7.142739
            CHANNELS 3 Zrotation Xrotation Yrotation
            JOINT HandLeft
            {
              OFFSET -0.658778 -3.665350 -3.018828
              CHANNELS 3 Zrotation Xrotation Yrotation
              JOINT HandTipLeft
              {
                OFFSET -0.269911 -5.232172 0.912229
                CHANNELS 3 Zrotation Xrotation Yrotation
                End Site
                {
                  OFFSET 0 0 0
                }
              }
              JOINT ThumbLeft
              {
                OFFSET -1.989596 0.456032 -0.043882
                CHANNELS 3 Zrotation Xrotation Yrotation
                End Site
                {
                  OFFSET 0 0 0
                }
              }
            }
          }
        }
      }
      JOINT ShoulderRight
      {
        OFFSET 2.489950 -3.749896 -9.144542
        CHANNELS 3 Zrotation Xrotation Yrotation
        JOINT ElbowRight
        {
          OFFSET -10.439312 -20.816481 -3.535121
          CHANNELS 3 Zrotation Xrotation Yrotation
          JOINT WristRight
          {
            OFFSET -5.315476 -18.812053 1.543517
            CHANNELS 3 Zrotation Xrotation Yrotation
            JOINT HandRight
            {
              OFFSET -1.001402 -7.371655 0.806484
              CHANNELS 3 Zrotation Xrotation Yrotation
              JOINT HandTipRight
              {
                OFFSET -3.914138 -6.523733 1.399527
                CHANNELS 3 Zrotation Xrotation Yrotation
                End Site
                {
                  OFFSET 0 0 0
                }
              }
              JOINT ThumbRight
              {
                OFFSET 5.051167 0.720022 0.646498
                CHANNELS 3 Zrotation Xrotation Yrotation
                End Site
                {
                  OFFSET 0 0 0
                }
              }
            }
          }
        }
      }
    }
  }
  JOINT HipLeft
  {
    OFFSET -4.952384 1.078317 -0.794867
    CHANNELS 3 Zrotation Xrotation Yrotation
    JOINT KneeLeft
    {
      OFFSET 12.166481 -28.815281 7.449778
      CHANNELS 3 Zrotation Xrotation Yrotation
      JOINT AnkleLeft
      {
        OFFSET 3.443989 -34.894534 5.000729
        CHANNELS 3 Zrotation Xrotation Yrotation
        JOINT FootLeft
        {
          OFFSET 0.449934 -4.037260 -9.109287
          CHANNELS 3 Zrotation Xrotation Yrotation
          End Site
          {
            OFFSET 0 0 0
          }
        }
      }
    }
  }
  JOINT HipRight
  {
    OFFSET 3.587444 1.423921 -5.260613
    CHANNELS 3 Zrotation Xrotation Yrotation
    JOINT KneeRight
    {
      OFFSET -7.849303 -32.629869 -1.310097
      CHANNELS 3 Zrotation Xrotation Yrotation
      JOINT AnkleRight
      {
        OFFSET 4.467053 -32.410569 0.191509
        CHANNELS 3 Zrotation Xrotation Yrotation
        JOINT FootRight
        {
          OFFSET 1.697612 -3.331045 -11.046013
          CHANNELS 3 Zrotation Xrotation Yrotation
          End Site
          {
            OFFSET 0 0 0
          }
        }
      }
    }
  }
}
MOTION
Frames: 8
Frame Time: 0.033333
72.665405 70.907719 278.963143 -2.055909 -0.102146 27.916568 1.208349 0.217793 -27.960791 1.090724 -0.655019 0.059071 -14.550852 -13.163009 -0.175796 0.000000 0.000000 0.000000 -2.938826 -3.015805 0.529471 2.970590 2.984524 -0.684253 6.797164 -38.511402 5.649589 -20.337089 38.148198 6.091868 0.000000 0.000000 0.000000 0.000000 0.000000 0.000000 -5.985396 6.247028 -1.730113 8.243870 -13.810056 5.093870 9.863782 -6.950038 0.912712 1.210859 12.465743 -0.835218 0.000000 0.000000 0.000000 0.000000 0.000000 0.000000 4.270520 0.118088 -26.615553 -2.691018 -1.526111 -1.433526 7.700935 6.013570 -12.899379 0.000000 0.000000 0.000000 6.380672 -4.276213 -27.707549 -8.963634 3.552341 0.529671 5.253892 -3.680184 -7.079076 0.000000 0.000000 0.000000
72.646492 70.927762 278.973355 -2.047242 -0.138192 27.484917 1.188287 0.199084 -27.529899 1.085475 -0.585841 0.057791 -17.099275 -16.314466 -1.659842 0.000000 0.000000 0.000000 -2.313960 -2.509395 0.455083 2.336017 2.488877 -0.556522 6.108031 -39.891938 6.727477 -18.154580 37.842846 4.318536 0.000000 0.000000 0.000000 0.000000 0.000000 0.000000 -5.515407 5.528007 -1.521246 7.600888 -12.305651 4.465505 9.307030 -7.361503 1.148620 0.285296 12.623715 -1.093784 0.000000 0.000000 0.000000 0.000000 0.000000 0.000000 4.434987 -0.071870 -26.182319 -3.046489 -1.470177 -1.459858 6.241119 1.947825 -10.763958 0.000000 0.000000 0.000000 6.441666 -4.097576 -27.306108 -8.916764 3.485189 0.545202 5.223977 -3.718293 -7.064237 0.000000 0.000000 0.000000
72.638396 70.944362 278.976501 -2.027485 -0.193459 27.185160 1.169500 0.161261 -27.230485 1.061272 -0.483362 0.055093 -18.727151 -18.032251 -2.424279 0.000000 0.000000 0.000000 -2.318562 -2.428913 0.440133 2.339215 2.409030 -0.538482 6.064687 -40.382665 6.982424 -14.021567 37.319895 2.140563 0.000000 0.000000 0.000000 0.000000 0.000000 0.000000 -5.441853 5.407998 -1.484655 7.726283 -11.557841 4.269815 8.983085 -8.849133 1.625917 0.014536 13.608034 -1.352649 0.000000 0.000000 0.000000 0.000000 0.000000 0.000000 4.344186 -0.024851 -25.938143 -2.894496 -1.662223 -1.419965 5.877233 1.577995 -10.334148 0.000000 0.000000 0.000000 6.600313 -4.208379 -26.979092 -9.374291 3.846572 0.588049 5.409578 -3.935278 -6.856353 0.000000 0.000000 0.000000
72.643534 70.956680 278.976653 -1.997079 -0.242856 26.795040 1.143459 0.144121 -26.840811 1.041717 -0.400377 0.052941 -20.227450 -19.688211 -3.333293 0.000000 0.000000 0.000000 -2.064374 -2.139176 0.392456 2.080404 2.123590 -0.469564 5.406766 -40.499421 7.460681 -15.374729 35.497644 2.191560 0.000000 0.000000 0.000000 0.000000 0.000000 0.000000 -5.381247 5.379212 -1.485169 7.933456 -10.897985 4.136669 8.422842 -10.374333 2.074980 0.322002 14.967608 -1.896823 0.000000 0.000000 0.000000 0.000000 0.000000 0.000000 4.492203 -0.123439 -25.533728 -3.268766 -1.950615 -1.502481 6.902571 5.511866 -11.273509 0.000000 0.000000 0.000000 6.543886 -3.906131 -26.636988 -9.096832 3.690131 0.593177 5.266872 -3.921378 -6.774783 0.000000 0.000000 0.000000
72.665223 70.964834 278.977195 -1.954643 -0.288402 26.526565 1.119194 0.124547 -26.572075 1.009169 -0.322063 0.050258 -20.794883 -20.363529 -3.775664 0.000000 0.000000 0.000000 -1.695775 -1.998901 0.374111 1.709816 1.986905 -0.433349 4.433794 -40.074512 7.892728 -14.241731 33.497487 0.850001 0.000000 0.000000 0.000000 0.000000 0.000000 0.000000 -5.293269 5.258470 -1.451097 8.239100 -10.429810 4.065089 7.214156 -11.162742 2.190082 1.091704 16.805362 -3.061932 0.000000 0.000000 0.000000 0.000000 0.000000 0.000000 4.211533 0.052925 -25.358127 -1.823279 -1.602838 -1.177340 5.677628 5.168075 -11.252797 0.000000 0.000000 0.000000 6.402773 -3.544661 -26.426508 -8.673242 3.382916 0.579681 5.043145 -3.774548 -6.597627 0.000000 0.000000 0.000000
72.678276 70.962861 278.973860 -1.918152 -0.347103 26.251381 1.102145 0.093879 -26.296594 0.971392 -0.223844 0.047099 -20.722358 -20.402629 -3.888260 0.000000 0.000000 0.000000 -1.435913 -1.665612 0.315567 1.445668 1.657153 -0.357350 3.348516 -39.313501 8.257100 -16.410576 33.213515 1.073860 0.000000 0.000000 0.000000 0.000000 0.000000 0.000000 -5.311994 5.038354 -1.350143 8.524896 -10.080903 3.956255 6.725717 -11.493582 2.249800 2.347802 17.832498 -3.872236 0.000000 0.000000 0.000000 0.000000 0.000000 0.000000 3.797464 0.387592 -25.197241 -2.338989 -1.776613 -1.253435 6.462827 5.405365 -10.700960 0.000000 0.000000 0.000000 6.183242 -3.076398 -26.223120 -8.009671 2.902009 0.547052 4.633035 -3.461508 -6.157166 0.000000 0.000000 0.000000
72.711802 70.960604 278.961376 -1.837244 -0.388831 26.040837 1.079019 0.081274 -26.084022 0.903574 -0.157266 0.043023 -21.180733 -21.027848 -4.372601 0.000000 0.000000 0.000000 -1.415107 -1.256335 0.237202 1.420634 1.250081 -0.268218 2.702309 -39.156179 8.606108 -21.677255 32.440134 2.880331 0.000000 0.000000 0.000000 0.000000 0.000000 0.000000 -5.259504 4.872763 -1.288334 9.163137 -9.823451 3.991356 6.322503 -11.950384 2.391747 2.617239 18.197265 -4.012380 0.000000 0.000000 0.000000 0.000000 0.000000 0.000000 2.907329 1.095680 -25.176686 -1.226562 -1.711415 -1.018618 6.303670 5.108298 -10.554024 0.000000 0.000000 0.000000 5.919499 -2.781764 -26.043181 -7.540887 2.711948 0.525430 4.409233 -3.327574 -5.999585 0.000000 0.000000 0.000000
72.761316 70.957547 278.950417 -1.740155 -0.415180 26.080059 1.057163 0.088298 -26.120493 0.829551 -0.128364 0.039206 -20.243848 -20.466522 -4.364135 0.000000 0.000000 0.000000 -1.619088 -0.900318 0.166401 1.621894 0.895253 -0.191795 2.751699 -39.211432 8.597732 -27.734304 31.659078 5.530679 0.000000 0.000000 0.000000 0.000000 0.000000 0.000000 -5.479974 5.294118 -1.426456 10.354999 -10.702318 4.590165 7.817368 -12.784199 2.851865 1.617954 19.178734 -4.117509 0.000000 0.000000 0.000000 0.000000 0.000000 0.000000 2.691680 1.312782 -25.236398 -0.129174 -1.945600 -0.853788 5.517975 5.183601 -10.920942 0.000000 0.000000 0.000000 5.617936 -2.395170 -26.138547 -6.910272 2.222151 0.488332 4.196324 -3.057474 -6.233909 0.000000 0.000000 0.000000
